<?xml version="1.0" encoding="UTF-8" standalone="no"?><!DOCTYPE svg PUBLIC "-//W3C//DTD SVG 1.1//EN" "http://www.w3.org/Graphics/SVG/1.1/DTD/svg11.dtd"><svg width="100%" height="100%" viewBox="0 0 2250 2250" version="1.1" xmlns="http://www.w3.org/2000/svg" xmlns:xlink="http://www.w3.org/1999/xlink" xml:space="preserve" xmlns:serif="http://www.serif.com/" style="fill-rule:evenodd;clip-rule:evenodd;stroke-linejoin:round;stroke-miterlimit:2;"><g><path d="M300.086,2139.35l1846.9,-165.536l-37.636,-519.733l-98.249,-145.297l-1846.97,165.528l37.705,519.742l98.251,145.296Zm1949.91,-68.129l-1994.74,178.776l-146.486,-216.699l-47.595,-656.393l1994.74,-178.776l146.486,216.699l47.595,656.393Z" style="fill:#fff;fill-rule:nonzero;"/><path d="M2033.51,1253.46l13.802,190.726l-1812.25,162.427l28.742,397.342l-108.494,9.727l122.367,180.998l228.871,-20.507l1691.95,-151.648l-42.615,-588.067l-122.368,-180.998Z" style="fill:#65a30d;fill-rule:nonzero;"/><path d="M2076.12,1841.52l-1920.82,172.155l-42.616,-588.067l1920.82,-172.155l42.615,588.067Z" style="fill:#a1e438;fill-rule:nonzero;"/><path d="M238.902,941.221l1846.9,-165.536l-37.635,-519.733l-98.25,-145.297l-1846.97,165.528l37.706,519.741l98.25,145.297Zm1949.91,-68.129l-1994.74,178.776l-146.485,-216.699l-47.596,-656.393l1994.74,-178.776l146.486,216.699l47.595,656.393Z" style="fill:#fff;fill-rule:nonzero;"/><path d="M1972.33,55.324l13.801,190.725l-1812.25,162.428l28.743,397.341l-108.495,9.728l122.368,180.998l228.87,-20.508l1691.95,-151.647l-42.615,-588.067l-122.367,-180.998Z" style="fill:#65a30d;fill-rule:nonzero;"/><path d="M2014.94,643.391l-1920.82,172.155l-42.616,-588.067l1920.82,-172.155l42.615,588.067Z" style="fill:#a1e438;fill-rule:nonzero;"/></g></svg>