<?xml version="1.0" encoding="UTF-8" standalone="no"?><!DOCTYPE svg PUBLIC "-//W3C//DTD SVG 1.1//EN" "http://www.w3.org/Graphics/SVG/1.1/DTD/svg11.dtd"><svg width="100%" height="100%" viewBox="0 0 2250 2250" version="1.1" xmlns="http://www.w3.org/2000/svg" xmlns:xlink="http://www.w3.org/1999/xlink" xml:space="preserve" xmlns:serif="http://www.serif.com/" style="fill-rule:evenodd;clip-rule:evenodd;stroke-linejoin:round;stroke-miterlimit:2;"><g><path d="M1299.57,100.897l-494.966,0l-0,1955.93l145.839,92.278l494.967,0l-0,-1955.93l-145.84,-92.279Zm-378.415,2149.1l-217.482,-137.626l0,-2112.37l625.11,0l217.482,137.626l0,2112.37l-625.11,0Z" style="fill:#fff;fill-rule:nonzero;"/><path d="M193.158,1445.4l1955.91,-0l-0,-494.975l-92.295,-145.809l-1955.91,-0l0,494.974l92.295,145.81Zm2056.84,100.897l-2112.41,0l-137.586,-217.464l0,-625.122l2112.35,-0l137.654,217.471l0,625.115Z" style="fill:#fff;fill-rule:nonzero;"/><path d="M2199.53,935.796l-114.974,-181.637l0,181.637l-588.763,-0l-0,-770.391l-181.586,-114.953l0,114.953l-378.415,-0l0,770.391l-770.424,-0l-0,378.408l-114.899,0l114.899,181.637l770.424,-0l0,588.754l-181.661,0l181.661,114.953l560.001,-0l-0,-703.707l703.737,-0l-0,-560.045Z" style="fill:#65a30d;fill-rule:nonzero;"/><path d="M2084.56,754.159l-770.349,0l0,-703.707l-560.076,0l0,703.707l-703.662,0l0,560.045l703.662,0l0,770.391l560.076,0l0,-770.391l770.349,0l0,-560.045Z" style="fill:#a1e438;fill-rule:nonzero;"/></g></svg>